<svg width="260" height="60" viewBox="0 0 260 60" fill="none" xmlns="http://www.w3.org/2000/svg">
  <defs>
    <linearGradient id="crystalWML" x1="10" y1="5" x2="50" y2="55" gradientUnits="userSpaceOnUse">
      <stop offset="0%" stop-color="#c4a8f0"></stop>
      <stop offset="40%" stop-color="#7c3aed"></stop>
      <stop offset="100%" stop-color="#3b1a7a"></stop>
    </linearGradient>
    <linearGradient id="facetWML1" x1="10" y1="5" x2="30" y2="26" gradientUnits="userSpaceOnUse">
      <stop offset="0%" stop-color="#a87fe8"></stop>
      <stop offset="100%" stop-color="#5b21b6"></stop>
    </linearGradient>
    <linearGradient id="facetWML2" x1="50" y1="5" x2="30" y2="26" gradientUnits="userSpaceOnUse">
      <stop offset="0%" stop-color="#6d28d9"></stop>
      <stop offset="100%" stop-color="#2e0f6e"></stop>
    </linearGradient>
  </defs>
  <path d="M30 3 L51 17 L49 43 L30 55 L11 43 L9 17 Z" fill="url(#crystalWML)"></path>
  <path d="M30 3 L9 17 L30 26 Z" fill="url(#facetWML1)" opacity="0.7"></path>
  <path d="M30 3 L51 17 L30 26 Z" fill="url(#facetWML2)" opacity="0.5"></path>
  <line x1="30" y1="3" x2="30" y2="26" stroke="rgba(255,255,255,0.15)" stroke-width="0.5"></line>
  <g transform="translate(17, 19)" opacity="0.95">
    <ellipse cx="13" cy="19" rx="8" ry="6" fill="white" opacity="0.9"></ellipse>
    <rect x="10" y="9" width="5" height="12" rx="2.5" fill="white" opacity="0.9"></rect>
    <ellipse cx="12.5" cy="7" rx="4" ry="3.5" fill="white" opacity="0.9"></ellipse>
    <path d="M9.5 4.5 L8.5 1 L11 3.5 Z" fill="white" opacity="0.9"></path>
    <path d="M15.5 4.5 L16.5 1 L14 3.5 Z" fill="white" opacity="0.9"></path>
    <rect x="7" y="23.5" width="2.5" height="7" rx="1.25" fill="white" opacity="0.8"></rect>
    <rect x="10.5" y="23.5" width="2.5" height="7" rx="1.25" fill="white" opacity="0.8"></rect>
    <rect x="15" y="23.5" width="2.5" height="7" rx="1.25" fill="white" opacity="0.8"></rect>
  </g>
  <circle cx="46" cy="14" r="7" fill="#3b82f6"></circle>
  <path d="M42.5 14 L45 16.5 L49.5 11" stroke="white" stroke-width="1.25" stroke-linecap="round" stroke-linejoin="round" fill="none"></path>
  <text x="68" y="36" font-family="Helvetica Neue, Helvetica, Arial, sans-serif" font-size="26" font-weight="600" fill="#1e1826" letter-spacing="-0.5">Vikunja</text>
  <text x="68" y="51" font-family="Helvetica Neue, Helvetica, Arial, sans-serif" font-size="12" font-weight="400" fill="#5a90d4" letter-spacing="1.5">for Obsidian</text>
</svg>